<?xml version="1.0" encoding="UTF-8"?> 
<svg xmlns="http://www.w3.org/2000/svg" id="Lager_1" data-name="Lager 1" viewBox="-30 -55 180 180">
<defs>
<style> 
.cls-1 { fill: #222; } .cls-2 { fill: #fff; } 
</style>
</defs>
<path class="cls-1" d="M102.35,21.31v-3h-1.13V18h2.72v.37H102.8v3Zm2.21,0V18h.72l1.13,2.71L107.5,18h.72v3.34h-.45V18.36h0l-1.23,2.95h-.26L105,18.36h0v2.95Z"></path><path class="cls-2" d="M107.15,0H0V74.2H107.15a15.11,15.11,0,0,0,15.07-15.07V0Z"></path><g><path class="cls-1" d="M28.68,46.79H44v8.57H19.79V19h8.89Z"></path><path class="cls-1" d="M62.34,19c8.83,0,13.1,11.49,6.13,16.42,3.85,2,5.41,5.14,5.41,8.21,0,5.87-4,11.74-11.64,11.74H45.51V19ZM54.29,32.14H61c3.07,0,3-5.1.11-5.1H54.29Zm0,14.8h8c3.74,0,3.74-6.59,0-6.59h-8Z"></path><path class="cls-1" d="M93.51,30.48c0-2.45-2-3.75-4.73-3.75s-4.67,1.2-4.67,3.17c0,2.71,4.31,2.76,5.51,2.86,5.14.67,11.63,2,13.19,8.57a14.24,14.24,0,0,1,.26,2.55c0,7.58-7.38,11.95-14.29,11.95-5.92,0-14-3.64-14-12.89h9c0,3.59,3,4.26,5,4.26,2.91,0,5.24-.83,5.24-2.91,0-2.59-4.16-2.7-5.5-2.86-5.87-.57-12.84-1.86-13.51-10.23v.05c-.42-8,6.13-12.78,13.87-12.78,6.49,0,13.51,3.64,13.51,12Z"></path></g><path class="cls-1" d="M102.44,22.32V19.21H101.3v-.38H104v.38h-1.14v3.11Zm2.2,0V18.83h.73l1.12,2.83,1.1-2.83h.72v3.49h-.45V19.23h0l-1.24,3.09h-.25l-1.24-3.09h0v3.09Z"></path></svg> 